<svg xmlns="http://www.w3.org/2000/svg" xmlns:xlink="http://www.w3.org/1999/xlink" width="500" zoomAndPan="magnify" viewBox="0 0 375 374.999991" height="500" preserveAspectRatio="xMidYMid meet" version="1.0"><defs><clipPath id="6e1a06b408"><path d="M 255.230469 118.480469 L 320 118.480469 L 320 238.480469 L 255.230469 238.480469 Z M 255.230469 118.480469 " clip-rule="nonzero"/></clipPath><clipPath id="38108eb605"><path d="M 311 229 L 375 229 L 375 238.480469 L 311 238.480469 Z M 311 229 " clip-rule="nonzero"/></clipPath></defs><path fill="#ffffff" d="M 198.949219 356.089844 C 181.03125 367.066406 161.128906 372.519531 141.160156 375 L 141.160156 371.035156 C 161.554688 358.570312 211.910156 320.253906 174.019531 260.976562 C 149.585938 222.664062 101.78125 200.707031 62.972656 179.320312 C 26.074219 158.355469 0.222656 119.050781 1.710938 77.691406 C 2.703125 46.316406 28.625 17.917969 58.511719 6.941406 C 67.007812 3.964844 75.4375 1.984375 83.933594 0.496094 L 83.933594 3.46875 C 64.953125 11.472656 35.5625 32.367188 50.011719 81.65625 C 58.511719 111.046875 84.359375 129.460938 110.28125 143.910156 C 140.664062 160.339844 170.054688 175.777344 194.914062 199.714844 C 247.746094 250 242.714844 330.171875 198.949219 356.089844 Z M 20.621094 262.464844 C 16.65625 325.210938 47.035156 353.117188 80.890625 368.554688 L 80.890625 373.015625 C 38.042969 366.570312 5.675781 351.628906 5.675781 351.628906 L 13.679688 262.464844 Z M 205.890625 111.046875 C 206.386719 53.257812 176.003906 17.421875 144.132812 2.972656 L 144.132812 0 C 186.980469 5.949219 220.335938 22.378906 220.335938 22.378906 L 212.902344 111.046875 Z M 205.890625 111.046875 " fill-opacity="1" fill-rule="nonzero"/><g clip-path="url(#6e1a06b408)"><path fill="#ffffff" d="M 259.917969 238.246094 C 258.808594 238.246094 257.742188 237.820312 256.890625 237.007812 C 255.230469 235.347656 255.230469 232.660156 256.890625 231 L 309.273438 178.617188 L 256.890625 126.195312 C 255.230469 124.53125 255.230469 121.847656 256.890625 120.183594 C 258.554688 118.523438 261.238281 118.523438 262.902344 120.183594 L 318.308594 175.589844 C 319.96875 177.253906 319.96875 179.9375 318.308594 181.601562 L 262.941406 237.007812 C 262.089844 237.859375 261.023438 238.246094 259.917969 238.246094 Z M 259.917969 238.246094 " fill-opacity="1" fill-rule="nonzero"/></g><g clip-path="url(#38108eb605)"><path fill="#ffffff" d="M 370.730469 238.246094 L 315.324219 238.246094 C 312.980469 238.246094 311.0625 236.328125 311.0625 233.984375 C 311.0625 231.636719 312.980469 229.71875 315.324219 229.71875 L 370.730469 229.71875 C 373.078125 229.71875 374.996094 231.636719 374.996094 233.984375 C 374.996094 236.328125 373.078125 238.246094 370.730469 238.246094 Z M 370.730469 238.246094 " fill-opacity="1" fill-rule="nonzero"/></g></svg>