<svg xmlns="http://www.w3.org/2000/svg" xmlns:xlink="http://www.w3.org/1999/xlink" width="500" zoomAndPan="magnify" viewBox="0 0 375 374.999991" height="500" preserveAspectRatio="xMidYMid meet" version="1.0"><defs><clipPath id="21a47cffe5"><path d="M 255.230469 115 L 320 115 L 320 234.648438 L 255.230469 234.648438 Z M 255.230469 115 " clip-rule="nonzero"/></clipPath><clipPath id="dffcceac56"><path d="M 311 225 L 375 225 L 375 234.648438 L 311 234.648438 Z M 311 225 " clip-rule="nonzero"/></clipPath></defs><g clip-path="url(#21a47cffe5)"><path fill="#000000" d="M 259.917969 234.414062 C 258.808594 234.414062 257.742188 233.988281 256.890625 233.179688 C 255.230469 231.515625 255.230469 228.832031 256.890625 227.167969 L 309.273438 174.789062 L 256.890625 122.363281 C 255.230469 120.703125 255.230469 118.015625 256.890625 116.355469 C 258.554688 114.691406 261.238281 114.691406 262.902344 116.355469 L 318.308594 171.761719 C 319.96875 173.421875 319.96875 176.109375 318.308594 177.769531 L 262.941406 233.179688 C 262.089844 234.03125 261.023438 234.414062 259.917969 234.414062 Z M 259.917969 234.414062 " fill-opacity="1" fill-rule="nonzero"/></g><g clip-path="url(#dffcceac56)"><path fill="#000000" d="M 370.730469 234.414062 L 315.324219 234.414062 C 312.980469 234.414062 311.0625 232.496094 311.0625 230.152344 C 311.0625 227.808594 312.980469 225.890625 315.324219 225.890625 L 370.730469 225.890625 C 373.078125 225.890625 374.996094 227.808594 374.996094 230.152344 C 374.996094 232.496094 373.078125 234.414062 370.730469 234.414062 Z M 370.730469 234.414062 " fill-opacity="1" fill-rule="nonzero"/></g><path fill="#000000" d="M 199.175781 356.089844 C 181.238281 367.066406 161.3125 372.519531 141.320312 375 L 141.320312 371.035156 C 161.738281 358.570312 212.148438 320.253906 174.21875 260.976562 C 149.757812 222.664062 101.898438 200.707031 63.042969 179.320312 C 26.101562 158.355469 0.222656 119.050781 1.714844 77.691406 C 2.707031 46.316406 28.65625 17.917969 58.578125 6.941406 C 67.085938 3.964844 75.523438 1.984375 84.03125 0.496094 L 84.03125 3.46875 C 65.027344 11.472656 35.605469 32.367188 50.066406 81.65625 C 58.578125 111.046875 84.457031 129.460938 110.40625 143.910156 C 140.824219 160.339844 170.246094 175.777344 195.132812 199.714844 C 248.027344 250 242.992188 330.171875 199.175781 356.089844 Z M 20.644531 262.464844 C 16.671875 325.210938 47.089844 353.117188 80.980469 368.554688 L 80.980469 373.015625 C 38.085938 366.570312 5.683594 351.628906 5.683594 351.628906 L 13.695312 262.464844 Z M 206.121094 111.046875 C 206.621094 53.257812 176.203125 17.421875 144.296875 2.972656 L 144.296875 0 C 187.191406 5.949219 220.585938 22.378906 220.585938 22.378906 L 213.140625 111.046875 Z M 206.121094 111.046875 " fill-opacity="1" fill-rule="nonzero"/></svg>